<svg xmlns="http://www.w3.org/2000/svg" viewBox="0 0 64 64" role="img" aria-label="Goat Management Premium">
  <defs>
    <radialGradient id="bg" cx="30%" cy="25%" r="75%">
      <stop offset="0%" stop-color="#3d9b46"/>
      <stop offset="100%" stop-color="#1f5a27"/>
    </radialGradient>
  </defs>

  <circle cx="32" cy="32" r="30" fill="url(#bg)"/>
  <circle cx="32" cy="32" r="28" fill="none" stroke="#d9b86b" stroke-width="1.5" opacity="0.9"/>

  <path d="M24 21c-2-4 0-8 4-10" fill="none" stroke="#f3d89a" stroke-width="2.6" stroke-linecap="round"/>
  <path d="M40 21c2-4 0-8-4-10" fill="none" stroke="#f3d89a" stroke-width="2.6" stroke-linecap="round"/>

  <path d="M32 20c-7 0-12 6-12 14 0 7 4.5 12 9.5 14.3 1.4.6 3.1.6 4.5 0C39.5 46 44 41 44 34c0-8-5-14-12-14z" fill="#ffffff"/>
  <path d="M28 31c1.2 1.3 2.5 2 4 2s2.8-.7 4-2" fill="none" stroke="#2e7d32" stroke-width="2" stroke-linecap="round"/>
  <circle cx="27.5" cy="28" r="1.6" fill="#2e7d32"/>
  <circle cx="36.5" cy="28" r="1.6" fill="#2e7d32"/>
  <path d="M32 34l-2 2h4z" fill="#2e7d32"/>
</svg>
